<?xml version="1.0" ?><svg enable-background="new 0 0 64 64" height="64px" version="1.1" viewBox="0 0 64 64" width="64px" xml:space="preserve" xmlns="http://www.w3.org/2000/svg" xmlns:xlink="http://www.w3.org/1999/xlink"><g id="Layer_1"><g><circle cx="32" cy="32" fill="#E0E0D1" r="32"/></g><g opacity="0.2"><path d="M39.5,37.154V22.846c2.741-0.916,4.5-2.322,4.5-3.9c0-2.761-5.373-4-12-4s-12,1.239-12,4    c0,1.578,1.759,2.983,4.5,3.9v14.307c-2.741,0.916-4.5,2.322-4.5,3.9c0,2.477,4.327,4.528,10,4.925v7.075l2,4l2-4v-7.075    c5.673-0.398,10-2.448,10-4.925C44,39.475,42.241,38.07,39.5,37.154z" fill="#231F20"/></g><g><ellipse cx="32" cy="39.053" fill="#C75C5C" rx="12" ry="5"/></g><g><path d="M44,16.947c0,2.761-5.373,5-12,5s-12-2.239-12-5s5.373-4,12-4S44,14.185,44,16.947z" fill="#C75C5C"/></g><g><rect fill="#C75C5C" height="20" width="14" x="25" y="20"/></g><g><polygon fill="#4F5D73" points="30,51.053 32,55.053 34,51.053 34,41.053 30,41.053   "/></g><g><ellipse cx="32" cy="41.241" fill="#4F5D73" rx="2" ry="1.438"/></g></g><g id="Layer_2"/></svg>