<?xml version="1.0" encoding="utf-8"?>
<!-- Generator: Adobe Illustrator 23.1.0, SVG Export Plug-In . SVG Version: 6.00 Build 0)  -->
<svg version="1.1" id="Layer_1" xmlns="http://www.w3.org/2000/svg" xmlns:xlink="http://www.w3.org/1999/xlink" x="0px" y="0px"
	 viewBox="0 0 64 64" style="enable-background:new 0 0 64 64;" xml:space="preserve">
<style type="text/css">
	.st0{fill:#FF9AA2;}
	.st1{opacity:0.2;}
	.st2{fill:#231F20;}
	.st3{fill:#FFFFFF;}
	.st4{fill:#4F5D73;}
</style>
<g>
	<g>
		<circle class="st0" cx="32" cy="32" r="32"/>
	</g>
	<g>
		<g class="st1">
			<g>
				<path class="st2" d="M46,51c0,2.2-1.8,4-4,4H22c-2.2,0-4-1.8-4-4V31c0-2.2,1.8-4,4-4h20c2.2,0,4,1.8,4,4V51z"/>
			</g>
		</g>
		<g>
			<g>
				<path class="st3" d="M22,51c-1.1,0-2-0.9-2-2V13c0-1.1,0.9-2,2-2h20c1.1,0,2,0.9,2,2v36c0,1.1-0.9,2-2,2H22z"/>
			</g>
			<g>
				<path class="st4" d="M42,13v36H22V13H42 M42,9H22c-2.2,0-4,1.8-4,4v36c0,2.2,1.8,4,4,4h20c2.2,0,4-1.8,4-4V13
					C46,10.8,44.2,9,42,9L42,9z"/>
			</g>
		</g>
	</g>
</g>
</svg>
